<?xml version="1.0" encoding="UTF-8" standalone="no"?>
<!DOCTYPE svg PUBLIC "-//W3C//DTD SVG 1.1//EN"
 "http://www.w3.org/Graphics/SVG/1.1/DTD/svg11.dtd">
<!-- Generated by graphviz version 2.36.0 (20140111.2315)
 -->
<!-- Title: %463 Pages: 1 -->
<svg width="566pt" height="292pt"
 viewBox="0.00 0.00 566.00 292.00" xmlns="http://www.w3.org/2000/svg" xmlns:xlink="http://www.w3.org/1999/xlink">
<g id="graph0" class="graph" transform="scale(1 1) rotate(0) translate(4 288)">
<title>%463</title>
<polygon fill="white" stroke="none" points="-4,4 -4,-288 562,-288 562,4 -4,4"/>
<!-- A -->
<g id="node1" class="node"><title>A</title>
<ellipse fill="none" stroke="black" cx="279" cy="-262" rx="22.1473" ry="22.1965"/>
<text text-anchor="middle" x="279" y="-258.3" font-family="Times New Roman,serif" font-size="14.00">1/2</text>
</g>
<!-- B -->
<g id="node2" class="node"><title>B</title>
<ellipse fill="none" stroke="black" cx="207" cy="-182" rx="22.1473" ry="22.1965"/>
<text text-anchor="middle" x="207" y="-178.3" font-family="Times New Roman,serif" font-size="14.00">1/2</text>
</g>
<!-- A&#45;&#45;B -->
<g id="edge1" class="edge"><title>A&#45;&#45;B</title>
<path fill="none" stroke="black" d="M264.43,-245.216C251.938,-231.683 234.034,-212.287 221.549,-198.761"/>
</g>
<!-- C -->
<g id="node3" class="node"><title>C</title>
<ellipse fill="none" stroke="black" cx="351" cy="-182" rx="22.1473" ry="22.1965"/>
<text text-anchor="middle" x="351" y="-178.3" font-family="Times New Roman,serif" font-size="14.00">1/2</text>
</g>
<!-- A&#45;&#45;C -->
<g id="edge2" class="edge"><title>A&#45;&#45;C</title>
<path fill="none" stroke="black" d="M293.57,-245.216C306.062,-231.683 323.966,-212.287 336.451,-198.761"/>
</g>
<!-- D -->
<g id="node4" class="node"><title>D</title>
<ellipse fill="none" stroke="black" cx="99" cy="-98" rx="22.1473" ry="22.1965"/>
<text text-anchor="middle" x="99" y="-94.3" font-family="Times New Roman,serif" font-size="14.00">1/2</text>
</g>
<!-- B&#45;&#45;D -->
<g id="edge3" class="edge"><title>B&#45;&#45;D</title>
<path fill="none" stroke="black" d="M189.648,-167.825C169.494,-152.523 136.445,-127.43 116.309,-112.142"/>
</g>
<!-- E -->
<g id="node5" class="node"><title>E</title>
<ellipse fill="none" stroke="black" cx="207" cy="-98" rx="22.1473" ry="22.1965"/>
<text text-anchor="middle" x="207" y="-94.3" font-family="Times New Roman,serif" font-size="14.00">1/2</text>
</g>
<!-- B&#45;&#45;E -->
<g id="edge4" class="edge"><title>B&#45;&#45;E</title>
<path fill="none" stroke="black" d="M207,-159.883C207,-147.735 207,-132.514 207,-120.33"/>
</g>
<!-- F -->
<g id="node6" class="node"><title>F</title>
<ellipse fill="none" stroke="black" cx="351" cy="-98" rx="22.1473" ry="22.1965"/>
<text text-anchor="middle" x="351" y="-94.3" font-family="Times New Roman,serif" font-size="14.00">1/2</text>
</g>
<!-- C&#45;&#45;F -->
<g id="edge5" class="edge"><title>C&#45;&#45;F</title>
<path fill="none" stroke="black" d="M351,-159.883C351,-147.735 351,-132.514 351,-120.33"/>
</g>
<!-- G -->
<g id="node7" class="node"><title>G</title>
<ellipse fill="none" stroke="black" cx="459" cy="-98" rx="22.1397" ry="22.1814"/>
<ellipse fill="none" stroke="black" cx="459" cy="-98" rx="26.1472" ry="26.1964"/>
<text text-anchor="middle" x="459" y="-94.3" font-family="Times New Roman,serif" font-size="14.00">1/2</text>
</g>
<!-- C&#45;&#45;G -->
<g id="edge6" class="edge"><title>C&#45;&#45;G</title>
<path fill="none" stroke="black" d="M368.352,-167.825C387.433,-153.338 418.072,-130.075 438.368,-114.665"/>
</g>
<!-- H -->
<g id="node8" class="node"><title>H</title>
<polygon fill="none" stroke="black" points="54,-36 0,-36 0,-0 54,-0 54,-36"/>
<text text-anchor="middle" x="27" y="-14.3" font-family="Times New Roman,serif" font-size="14.00">X=0</text>
</g>
<!-- D&#45;&#45;H -->
<g id="edge7" class="edge"><title>D&#45;&#45;H</title>
<path fill="none" stroke="black" d="M84.4297,-81.2155C72.349,-68.128 55.2061,-49.5566 42.7979,-36.1144"/>
</g>
<!-- I -->
<g id="node9" class="node"><title>I</title>
<polygon fill="none" stroke="black" points="126,-36 72,-36 72,-0 126,-0 126,-36"/>
<text text-anchor="middle" x="99" y="-14.3" font-family="Times New Roman,serif" font-size="14.00">X=1</text>
</g>
<!-- D&#45;&#45;I -->
<g id="edge8" class="edge"><title>D&#45;&#45;I</title>
<path fill="none" stroke="black" d="M99,-75.6862C99,-63.2369 99,-47.7371 99,-36.0933"/>
</g>
<!-- J -->
<g id="node10" class="node"><title>J</title>
<polygon fill="none" stroke="black" points="198,-36 144,-36 144,-0 198,-0 198,-36"/>
<text text-anchor="middle" x="171" y="-14.3" font-family="Times New Roman,serif" font-size="14.00">X=2</text>
</g>
<!-- E&#45;&#45;J -->
<g id="edge9" class="edge"><title>E&#45;&#45;J</title>
<path fill="none" stroke="black" d="M198.101,-77.7191C192.229,-64.9971 184.604,-48.4762 178.939,-36.2004"/>
</g>
<!-- K -->
<g id="node11" class="node"><title>K</title>
<polygon fill="none" stroke="black" points="270,-36 216,-36 216,-0 270,-0 270,-36"/>
<text text-anchor="middle" x="243" y="-14.3" font-family="Times New Roman,serif" font-size="14.00">X=3</text>
</g>
<!-- E&#45;&#45;K -->
<g id="edge10" class="edge"><title>E&#45;&#45;K</title>
<path fill="none" stroke="black" d="M215.899,-77.7191C221.771,-64.9971 229.396,-48.4762 235.061,-36.2004"/>
</g>
<!-- L -->
<g id="node12" class="node"><title>L</title>
<polygon fill="none" stroke="black" points="342,-36 288,-36 288,-0 342,-0 342,-36"/>
<text text-anchor="middle" x="315" y="-14.3" font-family="Times New Roman,serif" font-size="14.00">X=4</text>
</g>
<!-- F&#45;&#45;L -->
<g id="edge11" class="edge"><title>F&#45;&#45;L</title>
<path fill="none" stroke="black" d="M342.101,-77.7191C336.229,-64.9971 328.604,-48.4762 322.939,-36.2004"/>
</g>
<!-- M -->
<g id="node13" class="node"><title>M</title>
<polygon fill="none" stroke="black" points="387,-36 360,-18 387,-0 414,-18 387,-36"/>
<text text-anchor="middle" x="387" y="-14.3" font-family="Times New Roman,serif" font-size="14.00">&#45;</text>
</g>
<!-- F&#45;&#45;M -->
<g id="edge12" class="edge"><title>F&#45;&#45;M</title>
<path fill="none" stroke="black" d="M359.899,-77.7191C366.395,-63.6437 375.038,-44.9181 380.799,-32.4364"/>
</g>
<!-- N -->
<g id="node14" class="node"><title>N</title>
<polygon fill="none" stroke="black" points="459,-36 432,-18 459,-0 486,-18 459,-36"/>
<text text-anchor="middle" x="459" y="-14.3" font-family="Times New Roman,serif" font-size="14.00">&#45;</text>
</g>
<!-- G&#45;&#45;N -->
<g id="edge13" class="edge"><title>G&#45;&#45;N</title>
<path fill="none" stroke="black" d="M459,-71.891C459,-60.3119 459,-46.8536 459,-36.4107"/>
</g>
<!-- O -->
<g id="node15" class="node"><title>O</title>
<polygon fill="none" stroke="black" points="531,-36 504,-18 531,-0 558,-18 531,-36"/>
<text text-anchor="middle" x="531" y="-14.3" font-family="Times New Roman,serif" font-size="14.00">&#45;</text>
</g>
<!-- G&#45;&#45;O -->
<g id="edge14" class="edge"><title>G&#45;&#45;O</title>
<path fill="none" stroke="black" d="M476.429,-78.1184C490.413,-62.9693 509.545,-42.2432 521.045,-29.7841"/>
</g>
</g>
</svg>
