<?xml version="1.0" encoding="UTF-8" standalone="no"?>
<!DOCTYPE svg PUBLIC "-//W3C//DTD SVG 1.1//EN"
 "http://www.w3.org/Graphics/SVG/1.1/DTD/svg11.dtd">
<!-- Generated by graphviz version 2.36.0 (20140111.2315)
 -->
<!-- Title: %547 Pages: 1 -->
<svg width="422pt" height="284pt"
 viewBox="0.00 0.00 422.00 284.00" xmlns="http://www.w3.org/2000/svg" xmlns:xlink="http://www.w3.org/1999/xlink">
<g id="graph0" class="graph" transform="scale(1 1) rotate(0) translate(4 280)">
<title>%547</title>
<polygon fill="white" stroke="none" points="-4,4 -4,-280 418,-280 418,4 -4,4"/>
<!-- A -->
<g id="node1" class="node"><title>A</title>
<ellipse fill="none" stroke="black" cx="279" cy="-254" rx="22.1473" ry="22.1965"/>
<text text-anchor="middle" x="279" y="-250.3" font-family="Times New Roman,serif" font-size="14.00">1/2</text>
</g>
<!-- B -->
<g id="node2" class="node"><title>B</title>
<ellipse fill="none" stroke="black" cx="207" cy="-174" rx="22.1473" ry="22.1965"/>
<text text-anchor="middle" x="207" y="-170.3" font-family="Times New Roman,serif" font-size="14.00">1/2</text>
</g>
<!-- A&#45;&#45;B -->
<g id="edge1" class="edge"><title>A&#45;&#45;B</title>
<path fill="none" stroke="black" d="M264.43,-237.216C251.938,-223.683 234.034,-204.287 221.549,-190.761"/>
</g>
<!-- C -->
<g id="node3" class="node"><title>C</title>
<ellipse fill="none" stroke="black" cx="315" cy="-174" rx="22.1473" ry="22.1965"/>
<text text-anchor="middle" x="315" y="-170.3" font-family="Times New Roman,serif" font-size="14.00">1/2</text>
</g>
<!-- A&#45;&#45;C -->
<g id="edge2" class="edge"><title>A&#45;&#45;C</title>
<path fill="none" stroke="black" d="M287.899,-233.719C293.437,-221.719 300.536,-206.339 306.079,-194.329"/>
</g>
<!-- D -->
<g id="node4" class="node"><title>D</title>
<ellipse fill="none" stroke="black" cx="99" cy="-94" rx="22.1473" ry="22.1965"/>
<text text-anchor="middle" x="99" y="-90.3" font-family="Times New Roman,serif" font-size="14.00">1/2</text>
</g>
<!-- B&#45;&#45;D -->
<g id="edge3" class="edge"><title>B&#45;&#45;D</title>
<path fill="none" stroke="black" d="M189.166,-160.12C169.036,-145.581 136.495,-122.08 116.502,-107.64"/>
</g>
<!-- E -->
<g id="node5" class="node"><title>E</title>
<ellipse fill="none" stroke="black" cx="207" cy="-94" rx="22.1473" ry="22.1965"/>
<text text-anchor="middle" x="207" y="-90.3" font-family="Times New Roman,serif" font-size="14.00">1/2</text>
</g>
<!-- B&#45;&#45;E -->
<g id="edge4" class="edge"><title>B&#45;&#45;E</title>
<path fill="none" stroke="black" d="M207,-151.686C207,-140.68 207,-127.29 207,-116.288"/>
</g>
<!-- F -->
<g id="node6" class="node"><title>F</title>
<ellipse fill="none" stroke="black" cx="315" cy="-94" rx="22.1473" ry="22.1965"/>
<text text-anchor="middle" x="315" y="-90.3" font-family="Times New Roman,serif" font-size="14.00">1/2</text>
</g>
<!-- C&#45;&#45;F -->
<g id="edge5" class="edge"><title>C&#45;&#45;F</title>
<path fill="none" stroke="black" d="M315,-151.686C315,-140.68 315,-127.29 315,-116.288"/>
</g>
<!-- N -->
<g id="node13" class="node"><title>N</title>
<polygon fill="none" stroke="black" points="382,-112 355,-94 382,-76 409,-94 382,-112"/>
<text text-anchor="middle" x="382" y="-90.3" font-family="Times New Roman,serif" font-size="14.00">&#45;</text>
</g>
<!-- C&#45;&#45;N -->
<g id="edge6" class="edge"><title>C&#45;&#45;N</title>
<path fill="none" stroke="black" d="M329.209,-156.458C342.269,-141.254 361.264,-119.141 372.551,-106"/>
</g>
<!-- H -->
<g id="node7" class="node"><title>H</title>
<polygon fill="none" stroke="black" points="54,-36 0,-36 0,-0 54,-0 54,-36"/>
<text text-anchor="middle" x="27" y="-14.3" font-family="Times New Roman,serif" font-size="14.00">X=0</text>
</g>
<!-- D&#45;&#45;H -->
<g id="edge7" class="edge"><title>D&#45;&#45;H</title>
<path fill="none" stroke="black" d="M84.0816,-77.6672C72.3012,-65.5596 55.8708,-48.6727 43.661,-36.1238"/>
</g>
<!-- I -->
<g id="node8" class="node"><title>I</title>
<polygon fill="none" stroke="black" points="126,-36 72,-36 72,-0 126,-0 126,-36"/>
<text text-anchor="middle" x="99" y="-14.3" font-family="Times New Roman,serif" font-size="14.00">X=1</text>
</g>
<!-- D&#45;&#45;I -->
<g id="edge8" class="edge"><title>D&#45;&#45;I</title>
<path fill="none" stroke="black" d="M99,-71.5961C99,-60.3271 99,-46.6956 99,-36.134"/>
</g>
<!-- J -->
<g id="node9" class="node"><title>J</title>
<polygon fill="none" stroke="black" points="198,-36 144,-36 144,-0 198,-0 198,-36"/>
<text text-anchor="middle" x="171" y="-14.3" font-family="Times New Roman,serif" font-size="14.00">X=2</text>
</g>
<!-- E&#45;&#45;J -->
<g id="edge9" class="edge"><title>E&#45;&#45;J</title>
<path fill="none" stroke="black" d="M197.729,-73.9432C192.063,-62.2951 184.873,-47.5167 179.378,-36.2213"/>
</g>
<!-- K -->
<g id="node10" class="node"><title>K</title>
<polygon fill="none" stroke="black" points="270,-36 216,-36 216,-0 270,-0 270,-36"/>
<text text-anchor="middle" x="243" y="-14.3" font-family="Times New Roman,serif" font-size="14.00">X=3</text>
</g>
<!-- E&#45;&#45;K -->
<g id="edge10" class="edge"><title>E&#45;&#45;K</title>
<path fill="none" stroke="black" d="M216.271,-73.9432C221.937,-62.2951 229.127,-47.5167 234.622,-36.2213"/>
</g>
<!-- L -->
<g id="node11" class="node"><title>L</title>
<polygon fill="none" stroke="black" points="342,-36 288,-36 288,-0 342,-0 342,-36"/>
<text text-anchor="middle" x="315" y="-14.3" font-family="Times New Roman,serif" font-size="14.00">X=4</text>
</g>
<!-- F&#45;&#45;L -->
<g id="edge11" class="edge"><title>F&#45;&#45;L</title>
<path fill="none" stroke="black" d="M315,-71.5961C315,-60.3271 315,-46.6956 315,-36.134"/>
</g>
<!-- M -->
<g id="node12" class="node"><title>M</title>
<polygon fill="none" stroke="black" points="387,-36 360,-18 387,-0 414,-18 387,-36"/>
<text text-anchor="middle" x="387" y="-14.3" font-family="Times New Roman,serif" font-size="14.00">&#45;</text>
</g>
<!-- F&#45;&#45;M -->
<g id="edge12" class="edge"><title>F&#45;&#45;M</title>
<path fill="none" stroke="black" d="M329.918,-77.6672C343.923,-63.2736 364.5,-42.1255 376.744,-29.541"/>
</g>
</g>
</svg>
