<?xml version="1.0" encoding="UTF-8" standalone="no"?>
<!DOCTYPE svg PUBLIC "-//W3C//DTD SVG 1.1//EN"
 "http://www.w3.org/Graphics/SVG/1.1/DTD/svg11.dtd">
<!-- Generated by graphviz version 2.36.0 (20140111.2315)
 -->
<!-- Title: %743 Pages: 1 -->
<svg width="309pt" height="284pt"
 viewBox="0.00 0.00 309.00 284.00" xmlns="http://www.w3.org/2000/svg" xmlns:xlink="http://www.w3.org/1999/xlink">
<g id="graph0" class="graph" transform="scale(1 1) rotate(0) translate(4 280)">
<title>%743</title>
<polygon fill="white" stroke="none" points="-4,4 -4,-280 305,-280 305,4 -4,4"/>
<!-- A -->
<g id="node1" class="node"><title>A</title>
<ellipse fill="none" stroke="black" cx="135" cy="-254" rx="22.1473" ry="22.1965"/>
<text text-anchor="middle" x="135" y="-250.3" font-family="Times New Roman,serif" font-size="14.00">2/5</text>
</g>
<!-- B -->
<g id="node2" class="node"><title>B</title>
<ellipse fill="none" stroke="black" cx="99" cy="-174" rx="22.1473" ry="22.1965"/>
<text text-anchor="middle" x="99" y="-170.3" font-family="Times New Roman,serif" font-size="14.00">1/2</text>
</g>
<!-- A&#45;&#45;B -->
<g id="edge1" class="edge"><title>A&#45;&#45;B</title>
<path fill="none" stroke="black" d="M126.101,-233.719C120.563,-221.719 113.464,-206.339 107.921,-194.329"/>
</g>
<!-- C -->
<g id="node3" class="node"><title>C</title>
<ellipse fill="none" stroke="black" cx="171" cy="-174" rx="22.1473" ry="22.1965"/>
<text text-anchor="middle" x="171" y="-170.3" font-family="Times New Roman,serif" font-size="14.00">1/3</text>
</g>
<!-- A&#45;&#45;C -->
<g id="edge2" class="edge"><title>A&#45;&#45;C</title>
<path fill="none" stroke="black" d="M143.899,-233.719C149.437,-221.719 156.536,-206.339 162.079,-194.329"/>
</g>
<!-- D -->
<g id="node5" class="node"><title>D</title>
<polygon fill="none" stroke="black" points="54,-112 0,-112 0,-76 54,-76 54,-112"/>
<text text-anchor="middle" x="27" y="-90.3" font-family="Times New Roman,serif" font-size="14.00">X=0</text>
</g>
<!-- B&#45;&#45;D -->
<g id="edge3" class="edge"><title>B&#45;&#45;D</title>
<path fill="none" stroke="black" d="M84.4297,-157.216C72.349,-144.128 55.2061,-125.557 42.7979,-112.114"/>
</g>
<!-- E -->
<g id="node6" class="node"><title>E</title>
<polygon fill="none" stroke="black" points="126,-112 72,-112 72,-76 126,-76 126,-112"/>
<text text-anchor="middle" x="99" y="-90.3" font-family="Times New Roman,serif" font-size="14.00">X=1</text>
</g>
<!-- B&#45;&#45;E -->
<g id="edge4" class="edge"><title>B&#45;&#45;E</title>
<path fill="none" stroke="black" d="M99,-151.686C99,-139.237 99,-123.737 99,-112.093"/>
</g>
<!-- G -->
<g id="node4" class="node"><title>G</title>
<ellipse fill="none" stroke="black" cx="238" cy="-94" rx="22.1473" ry="22.1965"/>
<text text-anchor="middle" x="238" y="-90.3" font-family="Times New Roman,serif" font-size="14.00">1/2</text>
</g>
<!-- C&#45;&#45;G -->
<g id="edge6" class="edge"><title>C&#45;&#45;G</title>
<path fill="none" stroke="black" d="M185.209,-156.458C196.656,-143.132 212.661,-124.499 224.041,-111.25"/>
</g>
<!-- F -->
<g id="node7" class="node"><title>F</title>
<polygon fill="none" stroke="black" points="198,-112 144,-112 144,-76 198,-76 198,-112"/>
<text text-anchor="middle" x="171" y="-90.3" font-family="Times New Roman,serif" font-size="14.00">X=2</text>
</g>
<!-- C&#45;&#45;F -->
<g id="edge5" class="edge"><title>C&#45;&#45;F</title>
<path fill="none" stroke="black" d="M171,-151.686C171,-139.237 171,-123.737 171,-112.093"/>
</g>
<!-- H -->
<g id="node8" class="node"><title>H</title>
<polygon fill="none" stroke="black" points="229,-36 175,-36 175,-0 229,-0 229,-36"/>
<text text-anchor="middle" x="202" y="-14.3" font-family="Times New Roman,serif" font-size="14.00">X=3</text>
</g>
<!-- G&#45;&#45;H -->
<g id="edge7" class="edge"><title>G&#45;&#45;H</title>
<path fill="none" stroke="black" d="M228.729,-73.9432C223.063,-62.2951 215.873,-47.5167 210.378,-36.2213"/>
</g>
<!-- I -->
<g id="node9" class="node"><title>I</title>
<polygon fill="none" stroke="black" points="301,-36 247,-36 247,-0 301,-0 301,-36"/>
<text text-anchor="middle" x="274" y="-14.3" font-family="Times New Roman,serif" font-size="14.00">X=4</text>
</g>
<!-- G&#45;&#45;I -->
<g id="edge8" class="edge"><title>G&#45;&#45;I</title>
<path fill="none" stroke="black" d="M247.271,-73.9432C252.937,-62.2951 260.127,-47.5167 265.622,-36.2213"/>
</g>
</g>
</svg>
