<?xml version="1.0" encoding="UTF-8" standalone="no"?>
<!DOCTYPE svg PUBLIC "-//W3C//DTD SVG 1.1//EN"
 "http://www.w3.org/Graphics/SVG/1.1/DTD/svg11.dtd">
<!-- Generated by graphviz version 2.36.0 (20140111.2315)
 -->
<!-- Title: %1047 Pages: 1 -->
<svg width="350pt" height="298pt"
 viewBox="0.00 0.00 350.00 298.00" xmlns="http://www.w3.org/2000/svg" xmlns:xlink="http://www.w3.org/1999/xlink">
<g id="graph0" class="graph" transform="scale(1 1) rotate(0) translate(4 294)">
<title>%1047</title>
<polygon fill="white" stroke="none" points="-4,4 -4,-294 346,-294 346,4 -4,4"/>
<!-- start -->
<g id="node1" class="node"><title>start</title>
<text text-anchor="middle" x="253" y="-268.3" font-family="Times New Roman,serif" font-size="14.00">start</text>
</g>
<!-- A -->
<g id="node2" class="node"><title>A</title>
<ellipse fill="black" stroke="black" cx="253" cy="-214" rx="1.8" ry="1.8"/>
</g>
<!-- start&#45;&gt;A -->
<g id="edge1" class="edge"><title>start&#45;&gt;A</title>
<path fill="none" stroke="black" d="M253,-253.894C253,-244.888 253,-234.1 253,-226.173"/>
<polygon fill="black" stroke="black" points="256.5,-225.996 253,-215.996 249.5,-225.996 256.5,-225.996"/>
</g>
<!-- B -->
<g id="node3" class="node"><title>B</title>
<ellipse fill="black" stroke="black" cx="174" cy="-152" rx="1.8" ry="1.8"/>
</g>
<!-- A&#45;&gt;B -->
<g id="edge2" class="edge"><title>A&#45;&gt;B</title>
<path fill="none" stroke="black" d="M251.547,-212.609C245.828,-211.02 224.475,-204.624 210,-194 197.973,-185.172 187.118,-171.688 180.546,-162.618"/>
<polygon fill="black" stroke="black" points="183.292,-160.434 174.745,-154.173 177.522,-164.398 183.292,-160.434"/>
<text text-anchor="middle" x="219" y="-182.3" font-family="Times New Roman,serif" font-size="14.00">1/2</text>
</g>
<!-- C -->
<g id="node4" class="node"><title>C</title>
<ellipse fill="black" stroke="black" cx="271" cy="-152" rx="1.8" ry="1.8"/>
</g>
<!-- A&#45;&gt;C -->
<g id="edge3" class="edge"><title>A&#45;&gt;C</title>
<path fill="none" stroke="black" d="M252.036,-212.435C248.731,-210.436 237.856,-203.309 234,-194 231.279,-187.43 230.664,-184.28 234,-178 239.537,-167.576 251.575,-160.709 260.423,-156.854"/>
<polygon fill="black" stroke="black" points="261.648,-160.133 269.792,-153.355 259.199,-153.575 261.648,-160.133"/>
<text text-anchor="middle" x="243" y="-182.3" font-family="Times New Roman,serif" font-size="14.00">1/2</text>
</g>
<!-- D -->
<g id="node5" class="node"><title>D</title>
<ellipse fill="black" stroke="black" cx="99" cy="-90" rx="1.8" ry="1.8"/>
</g>
<!-- B&#45;&gt;D -->
<g id="edge4" class="edge"><title>B&#45;&gt;D</title>
<path fill="none" stroke="black" d="M173.158,-150.326C166.838,-145.27 126.583,-113.067 108.17,-98.3363"/>
<polygon fill="black" stroke="black" points="110.143,-95.4324 100.148,-91.9184 105.77,-100.898 110.143,-95.4324"/>
<text text-anchor="middle" x="150" y="-114.3" font-family="Times New Roman,serif" font-size="14.00">1/2</text>
</g>
<!-- E -->
<g id="node6" class="node"><title>E</title>
<ellipse fill="black" stroke="black" cx="174" cy="-90" rx="1.8" ry="1.8"/>
</g>
<!-- B&#45;&gt;E -->
<g id="edge5" class="edge"><title>B&#45;&gt;E</title>
<path fill="none" stroke="black" d="M174,-149.959C174,-144.393 174,-117.828 174,-102.322"/>
<polygon fill="black" stroke="black" points="177.5,-101.889 174,-91.8888 170.5,-101.889 177.5,-101.889"/>
<text text-anchor="middle" x="183" y="-114.3" font-family="Times New Roman,serif" font-size="14.00">1/2</text>
</g>
<!-- C&#45;&gt;A -->
<g id="edge7" class="edge"><title>C&#45;&gt;A</title>
<path fill="none" stroke="black" d="M270.733,-153.889C269.152,-159.161 260.914,-186.621 256.242,-202.192"/>
<polygon fill="black" stroke="black" points="252.834,-201.375 253.312,-211.959 259.538,-203.386 252.834,-201.375"/>
<text text-anchor="middle" x="273" y="-182.3" font-family="Times New Roman,serif" font-size="14.00">1/2</text>
</g>
<!-- F -->
<g id="node7" class="node"><title>F</title>
<ellipse fill="black" stroke="black" cx="309" cy="-90" rx="1.8" ry="1.8"/>
</g>
<!-- C&#45;&gt;F -->
<g id="edge6" class="edge"><title>C&#45;&gt;F</title>
<path fill="none" stroke="black" d="M270.837,-149.866C270.164,-144.738 268.033,-123.389 277,-110 282.006,-102.526 291.031,-97.5623 298.223,-94.5886"/>
<polygon fill="black" stroke="black" points="299.426,-97.8763 307.749,-91.3209 297.154,-91.2551 299.426,-97.8763"/>
<text text-anchor="middle" x="286" y="-114.3" font-family="Times New Roman,serif" font-size="14.00">1/2</text>
</g>
<!-- H -->
<g id="node8" class="node"><title>H</title>
<polygon fill="none" stroke="black" points="54,-36 0,-36 0,-0 54,-0 54,-36"/>
<text text-anchor="middle" x="27" y="-14.3" font-family="Times New Roman,serif" font-size="14.00">X=0</text>
</g>
<!-- D&#45;&gt;H -->
<g id="edge8" class="edge"><title>D&#45;&gt;H</title>
<path fill="none" stroke="black" d="M98.1386,-88.2998C95.1457,-85.8579 84.9475,-77.4609 77,-70 68.1406,-61.6831 58.7369,-52.26 50.504,-43.7964"/>
<polygon fill="black" stroke="black" points="52.7839,-41.1186 43.3214,-36.3528 47.7466,-45.9793 52.7839,-41.1186"/>
<text text-anchor="middle" x="86" y="-58.3" font-family="Times New Roman,serif" font-size="14.00">1/2</text>
</g>
<!-- I -->
<g id="node9" class="node"><title>I</title>
<polygon fill="none" stroke="black" points="126,-36 72,-36 72,-0 126,-0 126,-36"/>
<text text-anchor="middle" x="99" y="-14.3" font-family="Times New Roman,serif" font-size="14.00">X=1</text>
</g>
<!-- D&#45;&gt;I -->
<g id="edge9" class="edge"><title>D&#45;&gt;I</title>
<path fill="none" stroke="black" d="M99,-88.0105C99,-83.4142 99,-63.6439 99,-46.4357"/>
<polygon fill="black" stroke="black" points="102.5,-46.2107 99,-36.2108 95.5001,-46.2108 102.5,-46.2107"/>
<text text-anchor="middle" x="108" y="-58.3" font-family="Times New Roman,serif" font-size="14.00">1/2</text>
</g>
<!-- J -->
<g id="node10" class="node"><title>J</title>
<polygon fill="none" stroke="black" points="198,-36 144,-36 144,-0 198,-0 198,-36"/>
<text text-anchor="middle" x="171" y="-14.3" font-family="Times New Roman,serif" font-size="14.00">X=2</text>
</g>
<!-- E&#45;&gt;J -->
<g id="edge10" class="edge"><title>E&#45;&gt;J</title>
<path fill="none" stroke="black" d="M173.958,-88.0105C173.761,-83.4142 172.913,-63.6439 172.176,-46.4357"/>
<polygon fill="black" stroke="black" points="175.663,-46.0517 171.738,-36.2108 168.669,-46.3515 175.663,-46.0517"/>
<text text-anchor="middle" x="183" y="-58.3" font-family="Times New Roman,serif" font-size="14.00">1/2</text>
</g>
<!-- K -->
<g id="node11" class="node"><title>K</title>
<polygon fill="none" stroke="black" points="270,-36 216,-36 216,-0 270,-0 270,-36"/>
<text text-anchor="middle" x="243" y="-14.3" font-family="Times New Roman,serif" font-size="14.00">X=3</text>
</g>
<!-- E&#45;&gt;K -->
<g id="edge11" class="edge"><title>E&#45;&gt;K</title>
<path fill="none" stroke="black" d="M174.87,-88.3087C177.891,-85.896 188.169,-77.5828 196,-70 204.477,-61.7919 213.352,-52.3943 221.077,-43.9208"/>
<polygon fill="black" stroke="black" points="223.707,-46.2301 227.804,-36.4594 218.508,-41.5427 223.707,-46.2301"/>
<text text-anchor="middle" x="220" y="-58.3" font-family="Times New Roman,serif" font-size="14.00">1/2</text>
</g>
<!-- F&#45;&gt;A -->
<g id="edge13" class="edge"><title>F&#45;&gt;A</title>
<path fill="none" stroke="black" d="M309.07,-92.1499C309.549,-101.022 311.616,-159.164 286,-194 280.548,-201.415 271.266,-206.384 263.932,-209.375"/>
<polygon fill="black" stroke="black" points="262.597,-206.132 254.263,-212.674 264.858,-212.757 262.597,-206.132"/>
<text text-anchor="middle" x="315" y="-148.3" font-family="Times New Roman,serif" font-size="14.00">1/2</text>
</g>
<!-- L -->
<g id="node12" class="node"><title>L</title>
<polygon fill="none" stroke="black" points="342,-36 288,-36 288,-0 342,-0 342,-36"/>
<text text-anchor="middle" x="315" y="-14.3" font-family="Times New Roman,serif" font-size="14.00">X=4</text>
</g>
<!-- F&#45;&gt;L -->
<g id="edge12" class="edge"><title>F&#45;&gt;L</title>
<path fill="none" stroke="black" d="M309.085,-88.0105C309.479,-83.4142 311.173,-63.6439 312.648,-46.4357"/>
<polygon fill="black" stroke="black" points="316.158,-46.4732 313.525,-36.2108 309.183,-45.8753 316.158,-46.4732"/>
<text text-anchor="middle" x="321" y="-58.3" font-family="Times New Roman,serif" font-size="14.00">1/2</text>
</g>
</g>
</svg>
