<?xml version="1.0" encoding="UTF-8" standalone="no"?>
<!DOCTYPE svg PUBLIC "-//W3C//DTD SVG 1.1//EN"
 "http://www.w3.org/Graphics/SVG/1.1/DTD/svg11.dtd">
<!-- Generated by graphviz version 2.36.0 (20140111.2315)
 -->
<!-- Title: %1291 Pages: 1 -->
<svg width="278pt" height="284pt"
 viewBox="0.00 0.00 278.00 284.00" xmlns="http://www.w3.org/2000/svg" xmlns:xlink="http://www.w3.org/1999/xlink">
<g id="graph0" class="graph" transform="scale(1 1) rotate(0) translate(4 280)">
<title>%1291</title>
<polygon fill="white" stroke="none" points="-4,4 -4,-280 274,-280 274,4 -4,4"/>
<!-- A -->
<g id="node1" class="node"><title>A</title>
<ellipse fill="none" stroke="black" cx="168" cy="-254" rx="22.1473" ry="22.1965"/>
<text text-anchor="middle" x="168" y="-250.3" font-family="Times New Roman,serif" font-size="14.00">4/5</text>
</g>
<!-- B -->
<g id="node2" class="node"><title>B</title>
<ellipse fill="none" stroke="black" cx="135" cy="-174" rx="22.1473" ry="22.1965"/>
<text text-anchor="middle" x="135" y="-170.3" font-family="Times New Roman,serif" font-size="14.00">1/2</text>
</g>
<!-- A&#45;&#45;B -->
<g id="edge1" class="edge"><title>A&#45;&#45;B</title>
<path fill="none" stroke="black" d="M159.673,-233.317C154.67,-221.493 148.327,-206.499 143.325,-194.676"/>
</g>
<!-- C -->
<g id="node3" class="node"><title>C</title>
<polygon fill="none" stroke="black" points="229,-192 175,-192 175,-156 229,-156 229,-192"/>
<text text-anchor="middle" x="202" y="-170.3" font-family="Times New Roman,serif" font-size="14.00">X=4</text>
</g>
<!-- A&#45;&#45;C -->
<g id="edge2" class="edge"><title>A&#45;&#45;C</title>
<path fill="none" stroke="black" d="M176.58,-233.317C182.127,-220.59 189.275,-204.192 194.578,-192.027"/>
</g>
<!-- D -->
<g id="node5" class="node"><title>D</title>
<ellipse fill="none" stroke="black" cx="99" cy="-94" rx="22.1473" ry="22.1965"/>
<text text-anchor="middle" x="99" y="-90.3" font-family="Times New Roman,serif" font-size="14.00">1/2</text>
</g>
<!-- B&#45;&#45;D -->
<g id="edge3" class="edge"><title>B&#45;&#45;D</title>
<path fill="none" stroke="black" d="M126.101,-153.719C120.563,-141.719 113.464,-126.339 107.921,-114.329"/>
</g>
<!-- E -->
<g id="node6" class="node"><title>E</title>
<ellipse fill="none" stroke="black" cx="171" cy="-94" rx="22.1473" ry="22.1965"/>
<text text-anchor="middle" x="171" y="-90.3" font-family="Times New Roman,serif" font-size="14.00">1/2</text>
</g>
<!-- B&#45;&#45;E -->
<g id="edge4" class="edge"><title>B&#45;&#45;E</title>
<path fill="none" stroke="black" d="M143.899,-153.719C149.437,-141.719 156.536,-126.339 162.079,-114.329"/>
</g>
<!-- G -->
<g id="node4" class="node"><title>G</title>
<polygon fill="none" stroke="black" points="126,-36 72,-36 72,-0 126,-0 126,-36"/>
<text text-anchor="middle" x="99" y="-14.3" font-family="Times New Roman,serif" font-size="14.00">X=0</text>
</g>
<!-- D&#45;&#45;G -->
<g id="edge6" class="edge"><title>D&#45;&#45;G</title>
<path fill="none" stroke="black" d="M99,-71.5961C99,-60.3271 99,-46.6956 99,-36.134"/>
</g>
<!-- F -->
<g id="node7" class="node"><title>F</title>
<polygon fill="none" stroke="black" points="54,-36 0,-36 0,-0 54,-0 54,-36"/>
<text text-anchor="middle" x="27" y="-14.3" font-family="Times New Roman,serif" font-size="14.00">X=1</text>
</g>
<!-- D&#45;&#45;F -->
<g id="edge5" class="edge"><title>D&#45;&#45;F</title>
<path fill="none" stroke="black" d="M84.0816,-77.6672C72.3012,-65.5596 55.8708,-48.6727 43.661,-36.1238"/>
</g>
<!-- H -->
<g id="node8" class="node"><title>H</title>
<polygon fill="none" stroke="black" points="198,-36 144,-36 144,-0 198,-0 198,-36"/>
<text text-anchor="middle" x="171" y="-14.3" font-family="Times New Roman,serif" font-size="14.00">X=2</text>
</g>
<!-- E&#45;&#45;H -->
<g id="edge7" class="edge"><title>E&#45;&#45;H</title>
<path fill="none" stroke="black" d="M171,-71.5961C171,-60.3271 171,-46.6956 171,-36.134"/>
</g>
<!-- I -->
<g id="node9" class="node"><title>I</title>
<polygon fill="none" stroke="black" points="270,-36 216,-36 216,-0 270,-0 270,-36"/>
<text text-anchor="middle" x="243" y="-14.3" font-family="Times New Roman,serif" font-size="14.00">X=3</text>
</g>
<!-- E&#45;&#45;I -->
<g id="edge8" class="edge"><title>E&#45;&#45;I</title>
<path fill="none" stroke="black" d="M185.918,-77.6672C197.699,-65.5596 214.129,-48.6727 226.339,-36.1238"/>
</g>
</g>
</svg>
