<?xml version="1.0" encoding="UTF-8" standalone="no"?>
<!DOCTYPE svg PUBLIC "-//W3C//DTD SVG 1.1//EN"
 "http://www.w3.org/Graphics/SVG/1.1/DTD/svg11.dtd">
<!-- Generated by graphviz version 2.36.0 (20140111.2315)
 -->
<!-- Title: %1327 Pages: 1 -->
<svg width="165pt" height="204pt"
 viewBox="0.00 0.00 165.00 204.00" xmlns="http://www.w3.org/2000/svg" xmlns:xlink="http://www.w3.org/1999/xlink">
<g id="graph0" class="graph" transform="scale(1 1) rotate(0) translate(4 200)">
<title>%1327</title>
<polygon fill="white" stroke="none" points="-4,4 -4,-200 161,-200 161,4 -4,4"/>
<!-- A -->
<g id="node1" class="node"><title>A</title>
<ellipse fill="none" stroke="black" cx="96" cy="-174" rx="22.1473" ry="22.1965"/>
<text text-anchor="middle" x="96" y="-170.3" font-family="Times New Roman,serif" font-size="14.00">1/2</text>
</g>
<!-- B -->
<g id="node2" class="node"><title>B</title>
<ellipse fill="none" stroke="black" cx="63" cy="-94" rx="22.1473" ry="22.1965"/>
<text text-anchor="middle" x="63" y="-90.3" font-family="Times New Roman,serif" font-size="14.00">1/3</text>
</g>
<!-- A&#45;&#45;B -->
<g id="edge1" class="edge"><title>A&#45;&#45;B</title>
<path fill="none" stroke="black" d="M88.6762,-155.689C83.5494,-143.571 76.6894,-127.357 71.3499,-114.736"/>
</g>
<!-- C -->
<g id="node3" class="node"><title>C</title>
<polygon fill="none" stroke="black" points="157,-112 103,-112 103,-76 157,-76 157,-112"/>
<text text-anchor="middle" x="130" y="-90.3" font-family="Times New Roman,serif" font-size="14.00">X=0</text>
</g>
<!-- A&#45;&#45;C -->
<g id="edge2" class="edge"><title>A&#45;&#45;C</title>
<path fill="none" stroke="black" d="M104.58,-153.317C110.127,-140.59 117.275,-124.192 122.578,-112.027"/>
</g>
<!-- D -->
<g id="node4" class="node"><title>D</title>
<polygon fill="none" stroke="black" points="54,-36 0,-36 0,-0 54,-0 54,-36"/>
<text text-anchor="middle" x="27" y="-14.3" font-family="Times New Roman,serif" font-size="14.00">X=1</text>
</g>
<!-- B&#45;&#45;D -->
<g id="edge3" class="edge"><title>B&#45;&#45;D</title>
<path fill="none" stroke="black" d="M53.7291,-73.9432C48.0625,-62.2951 40.873,-47.5167 35.3779,-36.2213"/>
</g>
<!-- E -->
<g id="node5" class="node"><title>E</title>
<polygon fill="none" stroke="black" points="126,-36 72,-36 72,-0 126,-0 126,-36"/>
<text text-anchor="middle" x="99" y="-14.3" font-family="Times New Roman,serif" font-size="14.00">X=2</text>
</g>
<!-- B&#45;&#45;E -->
<g id="edge4" class="edge"><title>B&#45;&#45;E</title>
<path fill="none" stroke="black" d="M72.2709,-73.9432C77.9375,-62.2951 85.127,-47.5167 90.6221,-36.2213"/>
</g>
</g>
</svg>
